<svg xmlns="http://www.w3.org/2000/svg" viewBox="0 0 800 500" width="800" height="500" role="img" aria-label="Dark grid of faint document outlines with a few highlighted in olive, representing classifier-flagged records among a large corpus">
<rect x="0.00" y="0.00" width="800.00" height="500.00" fill="#141414"/>
<rect x="40.00" y="36.00" width="46.00" height="58.00" fill="none" rx="4" stroke="#e5e5e5" stroke-width="1" opacity="0.06384315117862852"/>
<line x1="48.00" y1="48.00" x2="75.68" y2="48.00" stroke="#e5e5e5" stroke-width="1.4" stroke-linecap="round" opacity="0.057"/>
<line x1="48.00" y1="59.00" x2="65.21" y2="59.00" stroke="#e5e5e5" stroke-width="1.4" stroke-linecap="round" opacity="0.057"/>
<line x1="48.00" y1="70.00" x2="69.91" y2="70.00" stroke="#e5e5e5" stroke-width="1.4" stroke-linecap="round" opacity="0.057"/>
<line x1="48.00" y1="81.00" x2="68.34" y2="81.00" stroke="#e5e5e5" stroke-width="1.4" stroke-linecap="round" opacity="0.057"/>
<rect x="40.00" y="110.00" width="46.00" height="58.00" fill="none" rx="4" stroke="#e5e5e5" stroke-width="1" opacity="0.07301264383731637"/>
<line x1="48.00" y1="122.00" x2="67.76" y2="122.00" stroke="#e5e5e5" stroke-width="1.4" stroke-linecap="round" opacity="0.066"/>
<line x1="48.00" y1="133.00" x2="69.93" y2="133.00" stroke="#e5e5e5" stroke-width="1.4" stroke-linecap="round" opacity="0.066"/>
<line x1="48.00" y1="144.00" x2="67.06" y2="144.00" stroke="#e5e5e5" stroke-width="1.4" stroke-linecap="round" opacity="0.066"/>
<line x1="48.00" y1="155.00" x2="68.74" y2="155.00" stroke="#e5e5e5" stroke-width="1.4" stroke-linecap="round" opacity="0.066"/>
<rect x="40.00" y="258.00" width="46.00" height="58.00" fill="none" rx="4" stroke="#e5e5e5" stroke-width="1" opacity="0.059302965247630415"/>
<line x1="48.00" y1="270.00" x2="75.90" y2="270.00" stroke="#e5e5e5" stroke-width="1.4" stroke-linecap="round" opacity="0.053"/>
<line x1="48.00" y1="281.00" x2="67.88" y2="281.00" stroke="#e5e5e5" stroke-width="1.4" stroke-linecap="round" opacity="0.053"/>
<line x1="48.00" y1="292.00" x2="75.65" y2="292.00" stroke="#e5e5e5" stroke-width="1.4" stroke-linecap="round" opacity="0.053"/>
<line x1="48.00" y1="303.00" x2="68.83" y2="303.00" stroke="#e5e5e5" stroke-width="1.4" stroke-linecap="round" opacity="0.053"/>
<rect x="40.00" y="332.00" width="46.00" height="58.00" fill="none" rx="4" stroke="#e5e5e5" stroke-width="1" opacity="0.05356994872681144"/>
<line x1="48.00" y1="344.00" x2="67.02" y2="344.00" stroke="#e5e5e5" stroke-width="1.4" stroke-linecap="round" opacity="0.048"/>
<line x1="48.00" y1="355.00" x2="77.54" y2="355.00" stroke="#e5e5e5" stroke-width="1.4" stroke-linecap="round" opacity="0.048"/>
<line x1="48.00" y1="366.00" x2="65.86" y2="366.00" stroke="#e5e5e5" stroke-width="1.4" stroke-linecap="round" opacity="0.048"/>
<line x1="48.00" y1="377.00" x2="66.23" y2="377.00" stroke="#e5e5e5" stroke-width="1.4" stroke-linecap="round" opacity="0.048"/>
<rect x="40.00" y="406.00" width="46.00" height="58.00" fill="none" rx="4" stroke="#e5e5e5" stroke-width="1" opacity="0.0935742791117157"/>
<line x1="48.00" y1="418.00" x2="67.75" y2="418.00" stroke="#e5e5e5" stroke-width="1.4" stroke-linecap="round" opacity="0.084"/>
<line x1="48.00" y1="429.00" x2="76.25" y2="429.00" stroke="#e5e5e5" stroke-width="1.4" stroke-linecap="round" opacity="0.084"/>
<line x1="48.00" y1="440.00" x2="68.62" y2="440.00" stroke="#e5e5e5" stroke-width="1.4" stroke-linecap="round" opacity="0.084"/>
<line x1="48.00" y1="451.00" x2="76.27" y2="451.00" stroke="#e5e5e5" stroke-width="1.4" stroke-linecap="round" opacity="0.084"/>
<rect x="114.00" y="110.00" width="46.00" height="58.00" fill="none" rx="4" stroke="#e5e5e5" stroke-width="1" opacity="0.10880029581982317"/>
<line x1="122.00" y1="122.00" x2="151.25" y2="122.00" stroke="#e5e5e5" stroke-width="1.4" stroke-linecap="round" opacity="0.098"/>
<line x1="122.00" y1="133.00" x2="147.55" y2="133.00" stroke="#e5e5e5" stroke-width="1.4" stroke-linecap="round" opacity="0.098"/>
<line x1="122.00" y1="144.00" x2="143.32" y2="144.00" stroke="#e5e5e5" stroke-width="1.4" stroke-linecap="round" opacity="0.098"/>
<line x1="122.00" y1="155.00" x2="143.49" y2="155.00" stroke="#e5e5e5" stroke-width="1.4" stroke-linecap="round" opacity="0.098"/>
<rect x="114.00" y="184.00" width="46.00" height="58.00" fill="none" rx="4" stroke="#e5e5e5" stroke-width="1" opacity="0.10326681932655452"/>
<line x1="122.00" y1="196.00" x2="140.15" y2="196.00" stroke="#e5e5e5" stroke-width="1.4" stroke-linecap="round" opacity="0.093"/>
<line x1="122.00" y1="207.00" x2="147.78" y2="207.00" stroke="#e5e5e5" stroke-width="1.4" stroke-linecap="round" opacity="0.093"/>
<line x1="122.00" y1="218.00" x2="149.96" y2="218.00" stroke="#e5e5e5" stroke-width="1.4" stroke-linecap="round" opacity="0.093"/>
<line x1="122.00" y1="229.00" x2="142.65" y2="229.00" stroke="#e5e5e5" stroke-width="1.4" stroke-linecap="round" opacity="0.093"/>
<rect x="114.00" y="258.00" width="46.00" height="58.00" fill="none" rx="4" stroke="#e5e5e5" stroke-width="1" opacity="0.08980038657329287"/>
<line x1="122.00" y1="270.00" x2="145.09" y2="270.00" stroke="#e5e5e5" stroke-width="1.4" stroke-linecap="round" opacity="0.081"/>
<line x1="122.00" y1="281.00" x2="146.47" y2="281.00" stroke="#e5e5e5" stroke-width="1.4" stroke-linecap="round" opacity="0.081"/>
<line x1="122.00" y1="292.00" x2="151.70" y2="292.00" stroke="#e5e5e5" stroke-width="1.4" stroke-linecap="round" opacity="0.081"/>
<line x1="122.00" y1="303.00" x2="150.11" y2="303.00" stroke="#e5e5e5" stroke-width="1.4" stroke-linecap="round" opacity="0.081"/>
<rect x="114.00" y="332.00" width="46.00" height="58.00" fill="none" rx="4" stroke="#e5e5e5" stroke-width="1" opacity="0.09369273486815809"/>
<line x1="122.00" y1="344.00" x2="146.04" y2="344.00" stroke="#e5e5e5" stroke-width="1.4" stroke-linecap="round" opacity="0.084"/>
<line x1="122.00" y1="355.00" x2="141.58" y2="355.00" stroke="#e5e5e5" stroke-width="1.4" stroke-linecap="round" opacity="0.084"/>
<line x1="122.00" y1="366.00" x2="144.44" y2="366.00" stroke="#e5e5e5" stroke-width="1.4" stroke-linecap="round" opacity="0.084"/>
<line x1="122.00" y1="377.00" x2="139.68" y2="377.00" stroke="#e5e5e5" stroke-width="1.4" stroke-linecap="round" opacity="0.084"/>
<rect x="114.00" y="406.00" width="46.00" height="58.00" fill="none" rx="4" stroke="#e5e5e5" stroke-width="1" opacity="0.06931222953334278"/>
<line x1="122.00" y1="418.00" x2="150.06" y2="418.00" stroke="#e5e5e5" stroke-width="1.4" stroke-linecap="round" opacity="0.062"/>
<line x1="122.00" y1="429.00" x2="151.08" y2="429.00" stroke="#e5e5e5" stroke-width="1.4" stroke-linecap="round" opacity="0.062"/>
<line x1="122.00" y1="440.00" x2="151.45" y2="440.00" stroke="#e5e5e5" stroke-width="1.4" stroke-linecap="round" opacity="0.062"/>
<line x1="122.00" y1="451.00" x2="139.93" y2="451.00" stroke="#e5e5e5" stroke-width="1.4" stroke-linecap="round" opacity="0.062"/>
<rect x="188.00" y="110.00" width="46.00" height="58.00" fill="none" rx="4" stroke="#e5e5e5" stroke-width="1" opacity="0.05655975564712503"/>
<line x1="196.00" y1="122.00" x2="216.75" y2="122.00" stroke="#e5e5e5" stroke-width="1.4" stroke-linecap="round" opacity="0.051"/>
<line x1="196.00" y1="133.00" x2="224.21" y2="133.00" stroke="#e5e5e5" stroke-width="1.4" stroke-linecap="round" opacity="0.051"/>
<line x1="196.00" y1="144.00" x2="213.55" y2="144.00" stroke="#e5e5e5" stroke-width="1.4" stroke-linecap="round" opacity="0.051"/>
<line x1="196.00" y1="155.00" x2="216.82" y2="155.00" stroke="#e5e5e5" stroke-width="1.4" stroke-linecap="round" opacity="0.051"/>
<rect x="188.00" y="184.00" width="46.00" height="58.00" fill="none" rx="4" stroke="#e5e5e5" stroke-width="1" opacity="0.08654338949723417"/>
<line x1="196.00" y1="196.00" x2="220.14" y2="196.00" stroke="#e5e5e5" stroke-width="1.4" stroke-linecap="round" opacity="0.078"/>
<line x1="196.00" y1="207.00" x2="214.12" y2="207.00" stroke="#e5e5e5" stroke-width="1.4" stroke-linecap="round" opacity="0.078"/>
<line x1="196.00" y1="218.00" x2="212.54" y2="218.00" stroke="#e5e5e5" stroke-width="1.4" stroke-linecap="round" opacity="0.078"/>
<line x1="196.00" y1="229.00" x2="222.62" y2="229.00" stroke="#e5e5e5" stroke-width="1.4" stroke-linecap="round" opacity="0.078"/>
<rect x="188.00" y="258.00" width="46.00" height="58.00" fill="none" rx="4" stroke="#e5e5e5" stroke-width="1" opacity="0.09400527795835634"/>
<line x1="196.00" y1="270.00" x2="216.48" y2="270.00" stroke="#e5e5e5" stroke-width="1.4" stroke-linecap="round" opacity="0.085"/>
<line x1="196.00" y1="281.00" x2="220.25" y2="281.00" stroke="#e5e5e5" stroke-width="1.4" stroke-linecap="round" opacity="0.085"/>
<line x1="196.00" y1="292.00" x2="219.70" y2="292.00" stroke="#e5e5e5" stroke-width="1.4" stroke-linecap="round" opacity="0.085"/>
<line x1="196.00" y1="303.00" x2="212.45" y2="303.00" stroke="#e5e5e5" stroke-width="1.4" stroke-linecap="round" opacity="0.085"/>
<rect x="188.00" y="332.00" width="46.00" height="58.00" fill="none" rx="4" stroke="#e5e5e5" stroke-width="1" opacity="0.0626919456999267"/>
<line x1="196.00" y1="344.00" x2="216.39" y2="344.00" stroke="#e5e5e5" stroke-width="1.4" stroke-linecap="round" opacity="0.056"/>
<line x1="196.00" y1="355.00" x2="222.12" y2="355.00" stroke="#e5e5e5" stroke-width="1.4" stroke-linecap="round" opacity="0.056"/>
<line x1="196.00" y1="366.00" x2="213.44" y2="366.00" stroke="#e5e5e5" stroke-width="1.4" stroke-linecap="round" opacity="0.056"/>
<line x1="196.00" y1="377.00" x2="221.44" y2="377.00" stroke="#e5e5e5" stroke-width="1.4" stroke-linecap="round" opacity="0.056"/>
<rect x="262.00" y="36.00" width="46.00" height="58.00" fill="none" rx="4" stroke="#e5e5e5" stroke-width="1" opacity="0.10310709981385266"/>
<line x1="270.00" y1="48.00" x2="289.48" y2="48.00" stroke="#e5e5e5" stroke-width="1.4" stroke-linecap="round" opacity="0.093"/>
<line x1="270.00" y1="59.00" x2="289.75" y2="59.00" stroke="#e5e5e5" stroke-width="1.4" stroke-linecap="round" opacity="0.093"/>
<line x1="270.00" y1="70.00" x2="297.00" y2="70.00" stroke="#e5e5e5" stroke-width="1.4" stroke-linecap="round" opacity="0.093"/>
<line x1="270.00" y1="81.00" x2="297.70" y2="81.00" stroke="#e5e5e5" stroke-width="1.4" stroke-linecap="round" opacity="0.093"/>
<rect x="262.00" y="110.00" width="46.00" height="58.00" fill="none" rx="4" stroke="#e5e5e5" stroke-width="1" opacity="0.06083753323649683"/>
<line x1="270.00" y1="122.00" x2="290.67" y2="122.00" stroke="#e5e5e5" stroke-width="1.4" stroke-linecap="round" opacity="0.055"/>
<line x1="270.00" y1="133.00" x2="299.10" y2="133.00" stroke="#e5e5e5" stroke-width="1.4" stroke-linecap="round" opacity="0.055"/>
<line x1="270.00" y1="144.00" x2="296.68" y2="144.00" stroke="#e5e5e5" stroke-width="1.4" stroke-linecap="round" opacity="0.055"/>
<line x1="270.00" y1="155.00" x2="292.06" y2="155.00" stroke="#e5e5e5" stroke-width="1.4" stroke-linecap="round" opacity="0.055"/>
<rect x="262.00" y="184.00" width="46.00" height="58.00" fill="none" rx="4" stroke="#e5e5e5" stroke-width="1" opacity="0.0697442086586196"/>
<line x1="270.00" y1="196.00" x2="296.80" y2="196.00" stroke="#e5e5e5" stroke-width="1.4" stroke-linecap="round" opacity="0.063"/>
<line x1="270.00" y1="207.00" x2="290.53" y2="207.00" stroke="#e5e5e5" stroke-width="1.4" stroke-linecap="round" opacity="0.063"/>
<line x1="270.00" y1="218.00" x2="298.34" y2="218.00" stroke="#e5e5e5" stroke-width="1.4" stroke-linecap="round" opacity="0.063"/>
<line x1="270.00" y1="229.00" x2="286.03" y2="229.00" stroke="#e5e5e5" stroke-width="1.4" stroke-linecap="round" opacity="0.063"/>
<rect x="262.00" y="258.00" width="46.00" height="58.00" fill="none" rx="4" stroke="#e5e5e5" stroke-width="1" opacity="0.09278281995342896"/>
<line x1="270.00" y1="270.00" x2="292.26" y2="270.00" stroke="#e5e5e5" stroke-width="1.4" stroke-linecap="round" opacity="0.084"/>
<line x1="270.00" y1="281.00" x2="293.03" y2="281.00" stroke="#e5e5e5" stroke-width="1.4" stroke-linecap="round" opacity="0.084"/>
<line x1="270.00" y1="292.00" x2="286.41" y2="292.00" stroke="#e5e5e5" stroke-width="1.4" stroke-linecap="round" opacity="0.084"/>
<line x1="270.00" y1="303.00" x2="287.49" y2="303.00" stroke="#e5e5e5" stroke-width="1.4" stroke-linecap="round" opacity="0.084"/>
<rect x="262.00" y="406.00" width="46.00" height="58.00" fill="none" rx="4" stroke="#e5e5e5" stroke-width="1" opacity="0.08537083821378183"/>
<line x1="270.00" y1="418.00" x2="286.82" y2="418.00" stroke="#e5e5e5" stroke-width="1.4" stroke-linecap="round" opacity="0.077"/>
<line x1="270.00" y1="429.00" x2="291.06" y2="429.00" stroke="#e5e5e5" stroke-width="1.4" stroke-linecap="round" opacity="0.077"/>
<line x1="270.00" y1="440.00" x2="292.82" y2="440.00" stroke="#e5e5e5" stroke-width="1.4" stroke-linecap="round" opacity="0.077"/>
<line x1="270.00" y1="451.00" x2="290.90" y2="451.00" stroke="#e5e5e5" stroke-width="1.4" stroke-linecap="round" opacity="0.077"/>
<rect x="336.00" y="36.00" width="46.00" height="58.00" fill="none" rx="4" stroke="#e5e5e5" stroke-width="1" opacity="0.09366177036136794"/>
<line x1="344.00" y1="48.00" x2="363.03" y2="48.00" stroke="#e5e5e5" stroke-width="1.4" stroke-linecap="round" opacity="0.084"/>
<line x1="344.00" y1="59.00" x2="373.00" y2="59.00" stroke="#e5e5e5" stroke-width="1.4" stroke-linecap="round" opacity="0.084"/>
<line x1="344.00" y1="70.00" x2="366.86" y2="70.00" stroke="#e5e5e5" stroke-width="1.4" stroke-linecap="round" opacity="0.084"/>
<line x1="344.00" y1="81.00" x2="365.67" y2="81.00" stroke="#e5e5e5" stroke-width="1.4" stroke-linecap="round" opacity="0.084"/>
<rect x="336.00" y="110.00" width="46.00" height="58.00" fill="none" rx="4" stroke="#e5e5e5" stroke-width="1" opacity="0.09090184408394676"/>
<line x1="344.00" y1="122.00" x2="361.09" y2="122.00" stroke="#e5e5e5" stroke-width="1.4" stroke-linecap="round" opacity="0.082"/>
<line x1="344.00" y1="133.00" x2="361.31" y2="133.00" stroke="#e5e5e5" stroke-width="1.4" stroke-linecap="round" opacity="0.082"/>
<line x1="344.00" y1="144.00" x2="369.69" y2="144.00" stroke="#e5e5e5" stroke-width="1.4" stroke-linecap="round" opacity="0.082"/>
<line x1="344.00" y1="155.00" x2="371.88" y2="155.00" stroke="#e5e5e5" stroke-width="1.4" stroke-linecap="round" opacity="0.082"/>
<rect x="336.00" y="258.00" width="46.00" height="58.00" fill="none" rx="4" stroke="#e5e5e5" stroke-width="1" opacity="0.0997710343255312"/>
<line x1="344.00" y1="270.00" x2="361.84" y2="270.00" stroke="#e5e5e5" stroke-width="1.4" stroke-linecap="round" opacity="0.090"/>
<line x1="344.00" y1="281.00" x2="370.09" y2="281.00" stroke="#e5e5e5" stroke-width="1.4" stroke-linecap="round" opacity="0.090"/>
<line x1="344.00" y1="292.00" x2="365.78" y2="292.00" stroke="#e5e5e5" stroke-width="1.4" stroke-linecap="round" opacity="0.090"/>
<line x1="344.00" y1="303.00" x2="369.75" y2="303.00" stroke="#e5e5e5" stroke-width="1.4" stroke-linecap="round" opacity="0.090"/>
<rect x="336.00" y="332.00" width="46.00" height="58.00" fill="none" rx="4" stroke="#e5e5e5" stroke-width="1" opacity="0.09149359770903909"/>
<line x1="344.00" y1="344.00" x2="370.65" y2="344.00" stroke="#e5e5e5" stroke-width="1.4" stroke-linecap="round" opacity="0.082"/>
<line x1="344.00" y1="355.00" x2="367.00" y2="355.00" stroke="#e5e5e5" stroke-width="1.4" stroke-linecap="round" opacity="0.082"/>
<line x1="344.00" y1="366.00" x2="365.68" y2="366.00" stroke="#e5e5e5" stroke-width="1.4" stroke-linecap="round" opacity="0.082"/>
<line x1="344.00" y1="377.00" x2="370.74" y2="377.00" stroke="#e5e5e5" stroke-width="1.4" stroke-linecap="round" opacity="0.082"/>
<rect x="336.00" y="406.00" width="46.00" height="58.00" fill="none" rx="4" stroke="#e5e5e5" stroke-width="1" opacity="0.07845423592243916"/>
<line x1="344.00" y1="418.00" x2="372.99" y2="418.00" stroke="#e5e5e5" stroke-width="1.4" stroke-linecap="round" opacity="0.071"/>
<line x1="344.00" y1="429.00" x2="367.07" y2="429.00" stroke="#e5e5e5" stroke-width="1.4" stroke-linecap="round" opacity="0.071"/>
<line x1="344.00" y1="440.00" x2="360.84" y2="440.00" stroke="#e5e5e5" stroke-width="1.4" stroke-linecap="round" opacity="0.071"/>
<line x1="344.00" y1="451.00" x2="362.44" y2="451.00" stroke="#e5e5e5" stroke-width="1.4" stroke-linecap="round" opacity="0.071"/>
<rect x="410.00" y="36.00" width="46.00" height="58.00" fill="none" rx="4" stroke="#e5e5e5" stroke-width="1" opacity="0.0995451140398557"/>
<line x1="418.00" y1="48.00" x2="437.97" y2="48.00" stroke="#e5e5e5" stroke-width="1.4" stroke-linecap="round" opacity="0.090"/>
<line x1="418.00" y1="59.00" x2="438.09" y2="59.00" stroke="#e5e5e5" stroke-width="1.4" stroke-linecap="round" opacity="0.090"/>
<line x1="418.00" y1="70.00" x2="447.62" y2="70.00" stroke="#e5e5e5" stroke-width="1.4" stroke-linecap="round" opacity="0.090"/>
<line x1="418.00" y1="81.00" x2="437.36" y2="81.00" stroke="#e5e5e5" stroke-width="1.4" stroke-linecap="round" opacity="0.090"/>
<rect x="410.00" y="110.00" width="46.00" height="58.00" fill="none" rx="4" stroke="#e5e5e5" stroke-width="1" opacity="0.09818260393972668"/>
<line x1="418.00" y1="122.00" x2="443.49" y2="122.00" stroke="#e5e5e5" stroke-width="1.4" stroke-linecap="round" opacity="0.088"/>
<line x1="418.00" y1="133.00" x2="442.87" y2="133.00" stroke="#e5e5e5" stroke-width="1.4" stroke-linecap="round" opacity="0.088"/>
<line x1="418.00" y1="144.00" x2="445.59" y2="144.00" stroke="#e5e5e5" stroke-width="1.4" stroke-linecap="round" opacity="0.088"/>
<line x1="418.00" y1="155.00" x2="435.85" y2="155.00" stroke="#e5e5e5" stroke-width="1.4" stroke-linecap="round" opacity="0.088"/>
<rect x="410.00" y="184.00" width="46.00" height="58.00" fill="none" rx="4" stroke="#e5e5e5" stroke-width="1" opacity="0.10236899537540936"/>
<line x1="418.00" y1="196.00" x2="440.81" y2="196.00" stroke="#e5e5e5" stroke-width="1.4" stroke-linecap="round" opacity="0.092"/>
<line x1="418.00" y1="207.00" x2="445.92" y2="207.00" stroke="#e5e5e5" stroke-width="1.4" stroke-linecap="round" opacity="0.092"/>
<line x1="418.00" y1="218.00" x2="438.83" y2="218.00" stroke="#e5e5e5" stroke-width="1.4" stroke-linecap="round" opacity="0.092"/>
<line x1="418.00" y1="229.00" x2="440.57" y2="229.00" stroke="#e5e5e5" stroke-width="1.4" stroke-linecap="round" opacity="0.092"/>
<rect x="410.00" y="258.00" width="46.00" height="58.00" fill="none" rx="4" stroke="#e5e5e5" stroke-width="1" opacity="0.09941538267539142"/>
<line x1="418.00" y1="270.00" x2="444.21" y2="270.00" stroke="#e5e5e5" stroke-width="1.4" stroke-linecap="round" opacity="0.089"/>
<line x1="418.00" y1="281.00" x2="447.67" y2="281.00" stroke="#e5e5e5" stroke-width="1.4" stroke-linecap="round" opacity="0.089"/>
<line x1="418.00" y1="292.00" x2="437.27" y2="292.00" stroke="#e5e5e5" stroke-width="1.4" stroke-linecap="round" opacity="0.089"/>
<line x1="418.00" y1="303.00" x2="437.82" y2="303.00" stroke="#e5e5e5" stroke-width="1.4" stroke-linecap="round" opacity="0.089"/>
<rect x="410.00" y="332.00" width="46.00" height="58.00" fill="none" rx="4" stroke="#e5e5e5" stroke-width="1" opacity="0.061172876675848704"/>
<line x1="418.00" y1="344.00" x2="440.62" y2="344.00" stroke="#e5e5e5" stroke-width="1.4" stroke-linecap="round" opacity="0.055"/>
<line x1="418.00" y1="355.00" x2="439.79" y2="355.00" stroke="#e5e5e5" stroke-width="1.4" stroke-linecap="round" opacity="0.055"/>
<line x1="418.00" y1="366.00" x2="438.35" y2="366.00" stroke="#e5e5e5" stroke-width="1.4" stroke-linecap="round" opacity="0.055"/>
<line x1="418.00" y1="377.00" x2="441.15" y2="377.00" stroke="#e5e5e5" stroke-width="1.4" stroke-linecap="round" opacity="0.055"/>
<rect x="410.00" y="406.00" width="46.00" height="58.00" fill="none" rx="4" stroke="#e5e5e5" stroke-width="1" opacity="0.09324688495996264"/>
<line x1="418.00" y1="418.00" x2="445.34" y2="418.00" stroke="#e5e5e5" stroke-width="1.4" stroke-linecap="round" opacity="0.084"/>
<line x1="418.00" y1="429.00" x2="445.47" y2="429.00" stroke="#e5e5e5" stroke-width="1.4" stroke-linecap="round" opacity="0.084"/>
<line x1="418.00" y1="440.00" x2="441.22" y2="440.00" stroke="#e5e5e5" stroke-width="1.4" stroke-linecap="round" opacity="0.084"/>
<line x1="418.00" y1="451.00" x2="437.44" y2="451.00" stroke="#e5e5e5" stroke-width="1.4" stroke-linecap="round" opacity="0.084"/>
<rect x="484.00" y="36.00" width="46.00" height="58.00" fill="none" rx="4" stroke="#e5e5e5" stroke-width="1" opacity="0.10120027431381717"/>
<line x1="492.00" y1="48.00" x2="515.85" y2="48.00" stroke="#e5e5e5" stroke-width="1.4" stroke-linecap="round" opacity="0.091"/>
<line x1="492.00" y1="59.00" x2="512.01" y2="59.00" stroke="#e5e5e5" stroke-width="1.4" stroke-linecap="round" opacity="0.091"/>
<line x1="492.00" y1="70.00" x2="520.51" y2="70.00" stroke="#e5e5e5" stroke-width="1.4" stroke-linecap="round" opacity="0.091"/>
<line x1="492.00" y1="81.00" x2="516.56" y2="81.00" stroke="#e5e5e5" stroke-width="1.4" stroke-linecap="round" opacity="0.091"/>
<rect x="484.00" y="110.00" width="46.00" height="58.00" fill="none" rx="4" stroke="#e5e5e5" stroke-width="1" opacity="0.10011757026270951"/>
<line x1="492.00" y1="122.00" x2="508.00" y2="122.00" stroke="#e5e5e5" stroke-width="1.4" stroke-linecap="round" opacity="0.090"/>
<line x1="492.00" y1="133.00" x2="512.62" y2="133.00" stroke="#e5e5e5" stroke-width="1.4" stroke-linecap="round" opacity="0.090"/>
<line x1="492.00" y1="144.00" x2="511.47" y2="144.00" stroke="#e5e5e5" stroke-width="1.4" stroke-linecap="round" opacity="0.090"/>
<line x1="492.00" y1="155.00" x2="516.79" y2="155.00" stroke="#e5e5e5" stroke-width="1.4" stroke-linecap="round" opacity="0.090"/>
<rect x="484.00" y="184.00" width="46.00" height="58.00" fill="none" rx="4" stroke="#e5e5e5" stroke-width="1" opacity="0.05510129425160137"/>
<line x1="492.00" y1="196.00" x2="516.81" y2="196.00" stroke="#e5e5e5" stroke-width="1.4" stroke-linecap="round" opacity="0.050"/>
<line x1="492.00" y1="207.00" x2="517.09" y2="207.00" stroke="#e5e5e5" stroke-width="1.4" stroke-linecap="round" opacity="0.050"/>
<line x1="492.00" y1="218.00" x2="509.90" y2="218.00" stroke="#e5e5e5" stroke-width="1.4" stroke-linecap="round" opacity="0.050"/>
<line x1="492.00" y1="229.00" x2="519.58" y2="229.00" stroke="#e5e5e5" stroke-width="1.4" stroke-linecap="round" opacity="0.050"/>
<rect x="484.00" y="258.00" width="46.00" height="58.00" fill="none" rx="4" stroke="#e5e5e5" stroke-width="1" opacity="0.05536337423261657"/>
<line x1="492.00" y1="270.00" x2="510.20" y2="270.00" stroke="#e5e5e5" stroke-width="1.4" stroke-linecap="round" opacity="0.050"/>
<line x1="492.00" y1="281.00" x2="517.58" y2="281.00" stroke="#e5e5e5" stroke-width="1.4" stroke-linecap="round" opacity="0.050"/>
<line x1="492.00" y1="292.00" x2="509.36" y2="292.00" stroke="#e5e5e5" stroke-width="1.4" stroke-linecap="round" opacity="0.050"/>
<line x1="492.00" y1="303.00" x2="517.62" y2="303.00" stroke="#e5e5e5" stroke-width="1.4" stroke-linecap="round" opacity="0.050"/>
<rect x="484.00" y="406.00" width="46.00" height="58.00" fill="none" rx="4" stroke="#e5e5e5" stroke-width="1" opacity="0.10414960343710428"/>
<line x1="492.00" y1="418.00" x2="508.37" y2="418.00" stroke="#e5e5e5" stroke-width="1.4" stroke-linecap="round" opacity="0.094"/>
<line x1="492.00" y1="429.00" x2="509.70" y2="429.00" stroke="#e5e5e5" stroke-width="1.4" stroke-linecap="round" opacity="0.094"/>
<line x1="492.00" y1="440.00" x2="512.31" y2="440.00" stroke="#e5e5e5" stroke-width="1.4" stroke-linecap="round" opacity="0.094"/>
<line x1="492.00" y1="451.00" x2="509.45" y2="451.00" stroke="#e5e5e5" stroke-width="1.4" stroke-linecap="round" opacity="0.094"/>
<rect x="558.00" y="184.00" width="46.00" height="58.00" fill="none" rx="4" stroke="#e5e5e5" stroke-width="1" opacity="0.10099323731707316"/>
<line x1="566.00" y1="196.00" x2="585.08" y2="196.00" stroke="#e5e5e5" stroke-width="1.4" stroke-linecap="round" opacity="0.091"/>
<line x1="566.00" y1="207.00" x2="591.16" y2="207.00" stroke="#e5e5e5" stroke-width="1.4" stroke-linecap="round" opacity="0.091"/>
<line x1="566.00" y1="218.00" x2="593.65" y2="218.00" stroke="#e5e5e5" stroke-width="1.4" stroke-linecap="round" opacity="0.091"/>
<line x1="566.00" y1="229.00" x2="583.41" y2="229.00" stroke="#e5e5e5" stroke-width="1.4" stroke-linecap="round" opacity="0.091"/>
<rect x="558.00" y="258.00" width="46.00" height="58.00" fill="none" rx="4" stroke="#e5e5e5" stroke-width="1" opacity="0.0818063518876529"/>
<line x1="566.00" y1="270.00" x2="583.59" y2="270.00" stroke="#e5e5e5" stroke-width="1.4" stroke-linecap="round" opacity="0.074"/>
<line x1="566.00" y1="281.00" x2="589.23" y2="281.00" stroke="#e5e5e5" stroke-width="1.4" stroke-linecap="round" opacity="0.074"/>
<line x1="566.00" y1="292.00" x2="592.47" y2="292.00" stroke="#e5e5e5" stroke-width="1.4" stroke-linecap="round" opacity="0.074"/>
<line x1="566.00" y1="303.00" x2="586.40" y2="303.00" stroke="#e5e5e5" stroke-width="1.4" stroke-linecap="round" opacity="0.074"/>
<rect x="558.00" y="332.00" width="46.00" height="58.00" fill="none" rx="4" stroke="#e5e5e5" stroke-width="1" opacity="0.06634383972254104"/>
<line x1="566.00" y1="344.00" x2="586.31" y2="344.00" stroke="#e5e5e5" stroke-width="1.4" stroke-linecap="round" opacity="0.060"/>
<line x1="566.00" y1="355.00" x2="583.34" y2="355.00" stroke="#e5e5e5" stroke-width="1.4" stroke-linecap="round" opacity="0.060"/>
<line x1="566.00" y1="366.00" x2="592.56" y2="366.00" stroke="#e5e5e5" stroke-width="1.4" stroke-linecap="round" opacity="0.060"/>
<line x1="566.00" y1="377.00" x2="584.62" y2="377.00" stroke="#e5e5e5" stroke-width="1.4" stroke-linecap="round" opacity="0.060"/>
<rect x="558.00" y="406.00" width="46.00" height="58.00" fill="none" rx="4" stroke="#e5e5e5" stroke-width="1" opacity="0.08134770097718051"/>
<line x1="566.00" y1="418.00" x2="593.29" y2="418.00" stroke="#e5e5e5" stroke-width="1.4" stroke-linecap="round" opacity="0.073"/>
<line x1="566.00" y1="429.00" x2="586.69" y2="429.00" stroke="#e5e5e5" stroke-width="1.4" stroke-linecap="round" opacity="0.073"/>
<line x1="566.00" y1="440.00" x2="592.06" y2="440.00" stroke="#e5e5e5" stroke-width="1.4" stroke-linecap="round" opacity="0.073"/>
<line x1="566.00" y1="451.00" x2="592.49" y2="451.00" stroke="#e5e5e5" stroke-width="1.4" stroke-linecap="round" opacity="0.073"/>
<rect x="632.00" y="110.00" width="46.00" height="58.00" fill="none" rx="4" stroke="#e5e5e5" stroke-width="1" opacity="0.055548232525907085"/>
<line x1="640.00" y1="122.00" x2="658.16" y2="122.00" stroke="#e5e5e5" stroke-width="1.4" stroke-linecap="round" opacity="0.050"/>
<line x1="640.00" y1="133.00" x2="656.07" y2="133.00" stroke="#e5e5e5" stroke-width="1.4" stroke-linecap="round" opacity="0.050"/>
<line x1="640.00" y1="144.00" x2="665.72" y2="144.00" stroke="#e5e5e5" stroke-width="1.4" stroke-linecap="round" opacity="0.050"/>
<line x1="640.00" y1="155.00" x2="664.33" y2="155.00" stroke="#e5e5e5" stroke-width="1.4" stroke-linecap="round" opacity="0.050"/>
<rect x="632.00" y="184.00" width="46.00" height="58.00" fill="none" rx="4" stroke="#e5e5e5" stroke-width="1" opacity="0.09517020123548595"/>
<line x1="640.00" y1="196.00" x2="669.83" y2="196.00" stroke="#e5e5e5" stroke-width="1.4" stroke-linecap="round" opacity="0.086"/>
<line x1="640.00" y1="207.00" x2="660.93" y2="207.00" stroke="#e5e5e5" stroke-width="1.4" stroke-linecap="round" opacity="0.086"/>
<line x1="640.00" y1="218.00" x2="666.73" y2="218.00" stroke="#e5e5e5" stroke-width="1.4" stroke-linecap="round" opacity="0.086"/>
<line x1="640.00" y1="229.00" x2="656.99" y2="229.00" stroke="#e5e5e5" stroke-width="1.4" stroke-linecap="round" opacity="0.086"/>
<rect x="632.00" y="258.00" width="46.00" height="58.00" fill="none" rx="4" stroke="#e5e5e5" stroke-width="1" opacity="0.10665503263377418"/>
<line x1="640.00" y1="270.00" x2="663.70" y2="270.00" stroke="#e5e5e5" stroke-width="1.4" stroke-linecap="round" opacity="0.096"/>
<line x1="640.00" y1="281.00" x2="660.83" y2="281.00" stroke="#e5e5e5" stroke-width="1.4" stroke-linecap="round" opacity="0.096"/>
<line x1="640.00" y1="292.00" x2="669.47" y2="292.00" stroke="#e5e5e5" stroke-width="1.4" stroke-linecap="round" opacity="0.096"/>
<line x1="640.00" y1="303.00" x2="667.16" y2="303.00" stroke="#e5e5e5" stroke-width="1.4" stroke-linecap="round" opacity="0.096"/>
<rect x="632.00" y="332.00" width="46.00" height="58.00" fill="none" rx="4" stroke="#e5e5e5" stroke-width="1" opacity="0.07215887979621807"/>
<line x1="640.00" y1="344.00" x2="667.58" y2="344.00" stroke="#e5e5e5" stroke-width="1.4" stroke-linecap="round" opacity="0.065"/>
<line x1="640.00" y1="355.00" x2="664.11" y2="355.00" stroke="#e5e5e5" stroke-width="1.4" stroke-linecap="round" opacity="0.065"/>
<line x1="640.00" y1="366.00" x2="668.77" y2="366.00" stroke="#e5e5e5" stroke-width="1.4" stroke-linecap="round" opacity="0.065"/>
<line x1="640.00" y1="377.00" x2="662.07" y2="377.00" stroke="#e5e5e5" stroke-width="1.4" stroke-linecap="round" opacity="0.065"/>
<rect x="706.00" y="110.00" width="46.00" height="58.00" fill="none" rx="4" stroke="#e5e5e5" stroke-width="1" opacity="0.10890475653655912"/>
<line x1="714.00" y1="122.00" x2="733.80" y2="122.00" stroke="#e5e5e5" stroke-width="1.4" stroke-linecap="round" opacity="0.098"/>
<line x1="714.00" y1="133.00" x2="735.12" y2="133.00" stroke="#e5e5e5" stroke-width="1.4" stroke-linecap="round" opacity="0.098"/>
<line x1="714.00" y1="144.00" x2="737.60" y2="144.00" stroke="#e5e5e5" stroke-width="1.4" stroke-linecap="round" opacity="0.098"/>
<line x1="714.00" y1="155.00" x2="742.85" y2="155.00" stroke="#e5e5e5" stroke-width="1.4" stroke-linecap="round" opacity="0.098"/>
<rect x="706.00" y="332.00" width="46.00" height="58.00" fill="none" rx="4" stroke="#e5e5e5" stroke-width="1" opacity="0.09133725632357506"/>
<line x1="714.00" y1="344.00" x2="732.62" y2="344.00" stroke="#e5e5e5" stroke-width="1.4" stroke-linecap="round" opacity="0.082"/>
<line x1="714.00" y1="355.00" x2="730.58" y2="355.00" stroke="#e5e5e5" stroke-width="1.4" stroke-linecap="round" opacity="0.082"/>
<line x1="714.00" y1="366.00" x2="730.39" y2="366.00" stroke="#e5e5e5" stroke-width="1.4" stroke-linecap="round" opacity="0.082"/>
<line x1="714.00" y1="377.00" x2="733.22" y2="377.00" stroke="#e5e5e5" stroke-width="1.4" stroke-linecap="round" opacity="0.082"/>
<rect x="706.00" y="406.00" width="46.00" height="58.00" fill="none" rx="4" stroke="#e5e5e5" stroke-width="1" opacity="0.10683998212910165"/>
<line x1="714.00" y1="418.00" x2="736.05" y2="418.00" stroke="#e5e5e5" stroke-width="1.4" stroke-linecap="round" opacity="0.096"/>
<line x1="714.00" y1="429.00" x2="737.67" y2="429.00" stroke="#e5e5e5" stroke-width="1.4" stroke-linecap="round" opacity="0.096"/>
<line x1="714.00" y1="440.00" x2="737.97" y2="440.00" stroke="#e5e5e5" stroke-width="1.4" stroke-linecap="round" opacity="0.096"/>
<line x1="714.00" y1="451.00" x2="740.21" y2="451.00" stroke="#e5e5e5" stroke-width="1.4" stroke-linecap="round" opacity="0.096"/>
<rect x="262.00" y="110.00" width="46.00" height="58.00" fill="rgba(163,184,108,0.10)" rx="4" stroke="#a3b86c" stroke-width="1.4"/>
<line x1="270.00" y1="122.00" x2="300.00" y2="122.00" stroke="#a3b86c" stroke-width="1.6" stroke-linecap="round"/>
<line x1="270.00" y1="133.00" x2="295.00" y2="133.00" stroke="#a3b86c" stroke-width="1.6" stroke-linecap="round"/>
<line x1="270.00" y1="144.00" x2="290.00" y2="144.00" stroke="#a3b86c" stroke-width="1.6" stroke-linecap="round"/>
<line x1="270.00" y1="155.00" x2="297.00" y2="155.00" stroke="#a3b86c" stroke-width="1.6" stroke-linecap="round"/>
<rect x="558.00" y="184.00" width="46.00" height="58.00" fill="rgba(163,184,108,0.10)" rx="4" stroke="#a3b86c" stroke-width="1.4"/>
<line x1="566.00" y1="196.00" x2="596.00" y2="196.00" stroke="#a3b86c" stroke-width="1.6" stroke-linecap="round"/>
<line x1="566.00" y1="207.00" x2="591.00" y2="207.00" stroke="#a3b86c" stroke-width="1.6" stroke-linecap="round"/>
<line x1="566.00" y1="218.00" x2="586.00" y2="218.00" stroke="#a3b86c" stroke-width="1.6" stroke-linecap="round"/>
<line x1="566.00" y1="229.00" x2="593.00" y2="229.00" stroke="#a3b86c" stroke-width="1.6" stroke-linecap="round"/>
<rect x="410.00" y="332.00" width="46.00" height="58.00" fill="rgba(163,184,108,0.10)" rx="4" stroke="#a3b86c" stroke-width="1.4"/>
<line x1="418.00" y1="344.00" x2="448.00" y2="344.00" stroke="#a3b86c" stroke-width="1.6" stroke-linecap="round"/>
<line x1="418.00" y1="355.00" x2="443.00" y2="355.00" stroke="#a3b86c" stroke-width="1.6" stroke-linecap="round"/>
<line x1="418.00" y1="366.00" x2="438.00" y2="366.00" stroke="#a3b86c" stroke-width="1.6" stroke-linecap="round"/>
<line x1="418.00" y1="377.00" x2="445.00" y2="377.00" stroke="#a3b86c" stroke-width="1.6" stroke-linecap="round"/>
<rect x="114.00" y="258.00" width="46.00" height="58.00" fill="rgba(163,184,108,0.10)" rx="4" stroke="#a3b86c" stroke-width="1.4"/>
<line x1="122.00" y1="270.00" x2="152.00" y2="270.00" stroke="#a3b86c" stroke-width="1.6" stroke-linecap="round"/>
<line x1="122.00" y1="281.00" x2="147.00" y2="281.00" stroke="#a3b86c" stroke-width="1.6" stroke-linecap="round"/>
<line x1="122.00" y1="292.00" x2="142.00" y2="292.00" stroke="#a3b86c" stroke-width="1.6" stroke-linecap="round"/>
<line x1="122.00" y1="303.00" x2="149.00" y2="303.00" stroke="#a3b86c" stroke-width="1.6" stroke-linecap="round"/>
</svg>
