<svg
    width="24"
    height="24"
    fill="none"
    version="1.1"
    id="svg2"
    xmlns:sodipodi="http://sodipodi.sourceforge.net/DTD/sodipodi-0.dtd"
    xmlns="http://www.w3.org/2000/svg"
    xmlns:svg="http://www.w3.org/2000/svg">
    <path fill="#ffffff" d="M 4.2362947,0 H 24.001 V 19.764706 L 19.765707,24 H 0.001 V 4.2352941 Z" id="path1" style="stroke-width: 1.41177" />
    <path
        fill="#052424"
        d="M 6.0887935,7.5529226 A 1.3475396,1.3972224 0 0 1 5.6400374,6.4891882 c 0,-0.4231211 0.1487379,-0.7948351 0.4474849,-1.0835065 0.298747,-0.2873532 0.6839399,-0.432348 1.1543076,-0.432348 0.4703676,0 0.8390341,0.1449948 1.137781,0.4310299 0.2974758,0.2873533 0.4462137,0.6485221 0.4462137,1.0835065 0,0.4336661 -0.1487379,0.7776992 -0.4462137,1.0650525 -0.2987469,0.2873533 -0.6775836,0.4323481 -1.137781,0.4323481 -0.4601976,0 -0.8555606,-0.1449948 -1.1530364,-0.4323481 z m 2.486592,1.6476679 V 18.010999 H 5.8917476 V 9.2019087 h 2.6823667 z m 8.9344435,0.8739235 c 0.584781,0.659067 0.877172,1.563305 0.877172,2.715355 v 5.069545 h -2.548884 v -4.713649 c 0,-0.579979 -0.144924,-1.03078 -0.434773,-1.352406 -0.289848,-0.320306 -0.680125,-0.482437 -1.169561,-0.482437 -0.488166,0 -0.879715,0.160812 -1.169563,0.482437 -0.288578,0.321626 -0.434773,0.772427 -0.434773,1.352406 v 4.713649 H 10.065308 V 9.1808185 h 2.564139 V 10.331549 C 12.888785,9.9479728 13.239654,9.6448018 13.679511,9.4220371 A 3.3307112,3.453512 0 0 1 15.163076,9.087231 c 0.980144,0 1.763243,0.3295336 2.346753,0.988601 z"
        id="path2"
        style="stroke-width: 1.29448" />
</svg>
